PathFileType	4	(X/Y/Z)	C:/Users/opensim2020/Desktop/walking_exp_matlab/subject02_walking13_straight_01.trc																																																																																																																									
DataRate	CameraRate	NumFrames	NumMarkers	Units	OrigDataRate	OrigDataStartFrame	OrigNumFrames																																																																																																																					
100	100	6	41	mm	100	509	140																																																																																																																					
Frame#	Time	LFHD			RFHD			LBHD			RBHD			C7			T10			CLAV			STRN			RBAK			LSHO			LUPA			LELB			LFRM			LWRA			LWRB			LFIN			RSHO			RUPA			RELB			RFRM			RWRA			RWRB			RFIN			LASI			RASI			LPSI			RPSI			LTHI			LKNE			LTIB			LANK			LHEE			LTOE			RTHI			RKNE			RTIB			RANK			RHEE			RTOE			*39			*40		
		X1	Y1	Z1	X2	Y2	Z2	X3	Y3	Z3	X4	Y4	Z4	X5	Y5	Z5	X6	Y6	Z6	X7	Y7	Z7	X8	Y8	Z8	X9	Y9	Z9	X10	Y10	Z10	X11	Y11	Z11	X12	Y12	Z12	X13	Y13	Z13	X14	Y14	Z14	X15	Y15	Z15	X16	Y16	Z16	X17	Y17	Z17	X18	Y18	Z18	X19	Y19	Z19	X20	Y20	Z20	X21	Y21	Z21	X22	Y22	Z22	X23	Y23	Z23	X24	Y24	Z24	X25	Y25	Z25	X26	Y26	Z26	X27	Y27	Z27	X28	Y28	Z28	X29	Y29	Z29	X30	Y30	Z30	X31	Y31	Z31	X32	Y32	Z32	X33	Y33	Z33	X34	Y34	Z34	X35	Y35	Z35	X36	Y36	Z36	X37	Y37	Z37	X38	Y38	Z38	X39	Y39	Z39	X40	Y40	Z40	X41	Y41	Z41
																																																																																																																												
106	1.05	423.25891	1743.79077	-1070.47571	383.65546	1720.73767	-931.84247	299.44345	1671.54382	-1117.41199	247.99309	1647.71997	-984.59662	223.03879	1525.2019	-1043.4231	178.00703	1247.72327	-1030.39258	364.05789	1460.19824	-1051.85693	420.19208	1290.46289	-1037.84924	169.78004	1350.57373	-972.21344	294.26331	1495.52917	-1222.80457	252.77774	1298.16406	-1301.84607	229.71933	1160.17859	-1314.04346	217.93169	1028.7207	-1329.64868	255.0932	895.55847	-1304.40173	208.12373	905.36591	-1334.15015	216.11723	838.77167	-1337.96082	296.90942	1499.31006	-857.51862	285.52139	1319.8905	-754.5954	323.42508	1178.22961	-717.25494	397.64786	1079.77441	-707.01794	491.58017	987.22028	-736.86896	454.0744	961.97095	-701.71039	516.35693	925.99072	-703.29462	416.70929	991.07294	-1154.45618	400.71356	970.63727	-898.91589	202.87738	1036.40308	-1086.29749	190.80258	1035.79041	-970.74878	422.08255	694.39142	-1233.58752	466.52383	502.12381	-1211.52136	446.1767	309.82031	-1221.60742	495.85513	87.68613	-1209.09827	469.51074	54.02117	-1156.16418	652.32495	75.43282	-1223.62524	298.31061	663.67731	-860.41187	270.69769	457.22223	-917.14502	203.04196	280.02298	-918.96356	154.41161	94.56	-968.49591	110.77084	43.6618	-1024.83997	301.53845	39.19889	-959.60608	300.88217	1807.98181	-1009.75092	2845.25635	1034.3446	-3360.39502
107	1.06	436.7832	1741.70361	-1070.60022	396.58264	1718.79761	-932.09943	313.03726	1669.55713	-1117.9447	261.19119	1645.82825	-985.38879	236.36916	1523.08435	-1044.20435	191.26219	1245.67151	-1032.2655	377.54352	1458.1521	-1052.01489	433.40826	1288.38525	-1037.21802	182.50348	1348.53162	-973.5777	308.32571	1493.06775	-1223.22412	263.94229	1296.57532	-1302.4707	238.56911	1158.7865	-1313.26514	222.29137	1028.29932	-1329.37537	253.80116	893.5799	-1303.64075	208.07108	905.55188	-1334.52979	213.11754	838.44611	-1337.95618	309.71561	1497.8291	-858.00409	299.13431	1318.49805	-754.57147	338.89816	1177.64954	-716.01282	414.89346	1081.07446	-705.99078	511.13043	990.67517	-735.60242	474.30383	964.51758	-700.52881	537.70239	930.34039	-701.82977	431.15524	988.1192	-1154.73706	412.59457	968.8042	-898.33044	216.37442	1033.32349	-1087.88306	203.4538	1032.85474	-972.8985	435.03757	691.00232	-1234.21497	482.06354	500.00586	-1212.87048	472.08212	307.30405	-1224.8468	533.79352	87.56753	-1213.95459	508.01843	51.94492	-1162.32312	691.33722	82.925	-1224.59766	306.39548	662.44666	-860.87836	275.57431	456.45718	-917.33057	205.78918	280.18994	-919.65948	154.76482	95.19983	-969.20154	111.40764	44.32009	-1025.2926	301.60895	39.11695	-959.27362	314.35495	1805.90344	-1010.2287	2846.15991	1034.39624	-3357.09546
108	1.07	450.35861	1739.43262	-1070.96558	409.4715	1716.5575	-932.79736	326.69763	1667.41797	-1118.57751	274.02545	1643.80481	-986.21735	249.76453	1520.95532	-1044.90527	204.69318	1243.51099	-1034.09802	391.01697	1455.9292	-1052.18677	446.77048	1286.15393	-1036.76318	195.73276	1346.19202	-974.84497	322.48325	1490.57678	-1223.65308	275.19077	1294.67712	-1302.18872	247.64522	1157.6134	-1312.698	227.16861	1028.09375	-1329.25391	253.17868	891.96686	-1303.04553	208.758	905.85608	-1334.98181	210.76266	838.53314	-1338.05188	322.44171	1495.89783	-858.50256	313.2453	1317.17651	-754.36188	354.21393	1176.78528	-714.97241	432.62854	1082.03967	-704.60144	530.42279	993.87854	-734.49701	494.24402	966.80536	-699.35083	558.1701	933.90631	-700.70752	445.69473	985.18231	-1155.05884	424.73953	967.15472	-897.91815	230.15179	1029.89844	-1089.37134	215.7301	1029.7699	-975.15601	447.58847	687.43823	-1235.20557	497.56165	497.78491	-1214.47693	497.32227	304.93857	-1228.26123	569.97876	88.46165	-1218.32056	544.67529	50.99778	-1167.41553	727.98621	90.81953	-1224.72949	314.56708	661.19501	-861.31989	281.07715	455.55643	-917.93005	208.56325	280.44403	-920.28589	155.61589	95.89742	-969.79077	111.77905	45.30506	-1026.19543	301.92316	38.89228	-959.34467	327.76752	1803.88794	-1010.64423	2845.19824	1034.31189	-3360.39795
109	1.08	463.88556	1737.15991	-1071.09387	422.43213	1714.34888	-933.09003	340.39563	1665.09338	-1119.08801	287.61221	1641.46887	-986.8244	263.11673	1518.57312	-1045.67712	218.1736	1241.1311	-1035.80273	404.55933	1453.59912	-1052.48279	460.10886	1283.86096	-1036.38098	208.88191	1343.70459	-976.21564	336.60632	1488.02148	-1224.26257	286.8208	1292.92505	-1302.64075	257.08929	1156.4231	-1311.99573	232.57957	1027.91174	-1329.02637	253.23276	890.65479	-1302.58289	210.11345	906.37946	-1335.50769	209.12148	838.90472	-1338.16467	334.79602	1493.95789	-859.13715	327.21082	1315.55688	-754.30688	369.3876	1175.78503	-714.19208	449.62851	1082.64038	-703.56604	549.4278	996.65399	-733.22504	513.67798	968.78583	-698.20905	578.2702	937.41937	-699.16205	460.38745	982.38287	-1155.42065	437.24707	965.6261	-897.6485	243.93365	1026.46277	-1090.92627	228.18369	1026.6814	-977.52722	459.8067	684.19714	-1236.55957	513.12708	495.47968	-1216.08545	522.04291	303.20206	-1231.6687	604.13086	89.91604	-1222.14795	579.18262	50.86786	-1172.34924	762.20349	98.85747	-1224.12439	322.74347	659.97388	-861.66803	286.28119	454.37878	-918.18799	211.27534	280.79449	-920.8728	156.28735	96.73952	-970.46973	112.17284	46.39234	-1027.22595	302.03629	38.79736	-959.12378	341.06525	1801.65918	-1011.49554	2845.35693	1034.23474	-3360.40747
110	1.09	477.48944	1734.72778	-1071.09521	435.48376	1712.0094	-933.56714	354.25861	1662.57935	-1119.45349	300.90393	1639.18286	-987.60571	276.35608	1516.21265	-1046.71326	231.6541	1238.67004	-1037.45679	418.01993	1451.26062	-1052.8042	473.43805	1281.55188	-1036.1261	222.05618	1341.08545	-977.66827	350.61417	1485.41602	-1224.59741	298.60638	1291.13	-1302.87488	266.86526	1155.22021	-1311.27283	238.62721	1027.88025	-1328.98962	254.07448	889.59302	-1302.25562	212.27934	907.08386	-1336.20435	208.18413	839.41614	-1338.05151	347.61227	1491.89868	-859.82471	341.18427	1313.8374	-754.5542	384.36588	1174.62073	-713.65039	466.3313	1082.96448	-702.75281	567.82452	998.99731	-731.9635	532.5733	970.46094	-697.17871	597.83374	940.80035	-697.68481	475.16528	979.76831	-1155.64221	449.98553	964.07379	-897.21039	257.83286	1023.15271	-1092.45276	240.91759	1023.6543	-979.89325	472.07065	681.70197	-1238.47009	529.0285	493.32404	-1217.77368	545.85394	302.08719	-1235.27661	636.02826	91.76282	-1225.45313	611.29535	51.35534	-1176.69397	793.87836	106.55885	-1223.07117	330.78403	658.78467	-862.16376	292.5907	453.82748	-918.60663	214.28407	281.16733	-921.59088	156.98709	97.76923	-971.14044	113.13427	47.44847	-1028.07446	302.05508	38.64999	-959.013	354.48453	1799.19666	-1012.13214	2845.24756	1034.23401	-3360.3291
111	1.1	491.10385	1732.26563	-1071.25916	448.50983	1709.70264	-933.83032	367.953	1660.39978	-1120.50879	314.14224	1636.88025	-988.53735	289.65948	1513.79993	-1047.68396	245.21428	1236.17212	-1038.98145	431.51099	1448.84656	-1053.18066	486.93405	1279.28064	-1036.07141	235.28886	1338.57593	-979.13031	364.67514	1483.02747	-1225.26721	310.66876	1289.24133	-1302.94214	277.13486	1154.06934	-1310.7124	245.37518	1027.91956	-1328.9884	255.74342	888.82086	-1302.09485	215.31235	907.96295	-1336.97742	208.1106	840.27429	-1338.29529	360.31567	1489.73376	-860.55804	354.82037	1311.86682	-754.83539	399.18695	1173.21106	-713.36652	482.73962	1083.05115	-702.06274	585.95801	1001.1311	-730.55579	550.99054	971.74225	-696.28839	616.8017	943.25391	-696.16553	490.05798	977.46265	-1155.78577	462.64188	962.2229	-897.2774	271.84897	1020.11676	-1093.94458	253.85585	1020.92975	-982.17816	485.11691	679.67194	-1240.66357	545.30487	491.46405	-1219.36487	568.48938	301.37402	-1238.71069	665.46326	93.8483	-1228.38074	640.797	52.34461	-1180.22778	822.81909	113.27217	-1222.19434	339.0426	657.74805	-862.83221	298.58875	453.09891	-918.95441	217.65614	281.75015	-922.19617	157.76784	99.05126	-971.7196	113.41266	49.3736	-1029.01208	302.18335	38.59048	-958.97546	367.96307	1796.88586	-1012.66315	2845.24731	1034.25793	-3360.32568
